# xmcd
#
# Track frame offsets:
#	150
#	24025
#	51475
#	66497
#	85937
#	110050
#	125295
#	150422
#	169585
#	186900
#
# Disc length: 2960 seconds
#
# Revision: 0
# Processed by: cddbd v1.5.2PL0 Copyright (c) Steve Scherf et al.
# Submitted via: EasyCDDAExtractor 16.0.6.1
#
DISCID=7f0b8e0a
DTITLE=Arja Saijonmaa - Μίκης and Arja-Μ. Θεοδωράκης 1
DYEAR=1992
DGENRE=Ποικίλη
TTITLE0=Arja Saijonmaa - Min älskade
TTITLE1=Arja Saijonmaa-Θεοδωράκης Μίκης - Våren önskar
TTITLE2=Arja Saijonmaa - Dom som följer efter oss
TTITLE3=Arja Saijonmaa - Sång om frihet
TTITLE4=Arja Saijonmaa - Gator
TTITLE5=Arja Saijonmaa - Håll mig hårt
TTITLE6=Arja Saijonmaa - Santiago
TTITLE7=Arja Saijonmaa - Kärlek är en frukt
TTITLE8=Arja Saijonmaa - Balkongen
TTITLE9=Άνευ ερμηνευτού - Änglarnas Kvartér [ορχηστρικό]
EXTD=
EXTT0=
EXTT1=
EXTT2=
EXTT3=
EXTT4=
EXTT5=
EXTT6=
EXTT7=
EXTT8=
EXTT9=
PLAYORDER=
